<?xml version="1.0" encoding="UTF-8"?>
<svg id="Layer_1" data-name="Layer 1" xmlns="http://www.w3.org/2000/svg" xmlns:xlink="http://www.w3.org/1999/xlink" viewBox="0 0 32 32" width="32" height="32">
  <defs>
    <style>
      .cls-1 {
        fill: none;
      }

      .cls-2 {
        clip-path: url(#clippath);
      }

      .cls-3 {
        fill: #768ac5;
      }

      .cls-4 {
        fill: #f7941d;
        fill-rule: evenodd;
      }
    </style>
    <clipPath id="clippath">
      <rect class="cls-1" x="-.49" width="32" height="32"/>
    </clipPath>
  </defs>
  <g class="cls-2">
    <path class="cls-4" d="m12.8,7.75c-.05.51-.2,1-.44,1.45l3.84,3.92c.55-.26,1.15-.41,1.76-.43l1.6-5.27c-.41-.3-.76-.68-1.02-1.11l-5.74,1.45Zm-.64-2.61l5.82-1.47c.26-1.96,1.94-3.46,3.96-3.46,2.2,0,3.99,1.79,3.99,3.99s-1.7,3.9-3.83,3.99l-1.58,5.2c1.24.81,2.01,2.19,2.01,3.7,0,1.27-.54,2.46-1.47,3.29l1.73,3.45c.19-.03.37-.04.56-.04,2.2,0,3.99,1.79,3.99,3.99s-1.79,3.99-3.99,3.99-3.99-1.79-3.99-3.99c0-1.02.39-1.99,1.08-2.73l-1.79-3.58c-.17.02-.35.03-.53.03-.89,0-1.76-.27-2.49-.77l-2.03,1.79c.01.1.02.21.02.32,0,1.34-1.09,2.44-2.43,2.44s-2.44-1.09-2.44-2.44,1.09-2.44,2.44-2.44c.23,0,.46.03.68.1l2.11-1.86c-.11-.29-.18-.58-.23-.89l-5.04-.68c-.69,1.28-2.03,2.1-3.52,2.1-2.2,0-3.99-1.79-3.99-3.99s1.79-3.99,3.99-3.99c1.94,0,3.58,1.39,3.92,3.25l5.04.68c.03-.07.07-.13.11-.2l-3.85-3.93c-.5.22-1.04.33-1.59.33-2.2,0-3.99-1.79-3.99-3.99s1.79-3.99,3.99-3.99c1.35,0,2.6.68,3.33,1.79"/>
    <path class="cls-3" d="m19.94,25.7c.14-.23-.63-2.87-.63-2.87"/>
    <path class="cls-3" d="m20.63,21.75c.16-.14-1.31,1.08-1.31,1.08-5.89,4.67-12.82,6.59-15.59,3.74-1.59-1.64-1.49-4.53-.15-7.73-.47-.21-.89-.5-1.24-.86-1.74,3.66-1.92,7.03-.13,9.12,2.85,3.32,10.78,2.82,17.73-1.4-.05.03,1.31-.79,1.82-1.18.42-.32,1.29-1.03,1.44-1.15,7.52-6.3,9.54-15.22,6.24-19.07-.93-1.09-2.3-1.71-3.95-1.9.23.45.38.95.42,1.47.54.22,1.02.53,1.41.93,2.99,3.08.06,10.53-5.93,16.23,0,0-.92.86-.76.72"/>
    <path class="cls-3" d="m8.66,11.33c-.47-.02-.92-.12-1.33-.29-.17.17-.33.34-.49.51.37.17.71.39,1.01.66.26-.3.53-.59.81-.88"/>
  </g>
</svg>